# xmcd
#
# Track frame offsets:
#	150
#	12291
#	49173
#	63647
#	84056
#	109890
#	125744
#	142541
#	155561
#	168057
#
# Disc length: 2425 seconds
#
# Revision: 1
# Processed by: cddbd v1.5.2PL0 Copyright (c) Steve Scherf et al.
# Submitted via: audiograbber 1.83.01
#
DISCID=7709770a
DTITLE=Catfish - live, alone and acoustic
DYEAR=2002
DGENRE=Blues
TTITLE0=Let me play with your poodle
TTITLE1=Medley: on the road again/ baby please don`t go
TTITLE2=San Francisco Bay Blues
TTITLE3=The Red Rooster
TTITLE4=Medley: who do you love/ i just wanna make love to you
TTITLE5=A Rag
TTITLE6=Statesboro Blues
TTITLE7=Traveling Riverside
TTITLE8=Last Fair Deal Gone Down
TTITLE9=Dallas
EXTD=
EXTT0=
EXTT1=
EXTT2=
EXTT3=
EXTT4=
EXTT5=
EXTT6=
EXTT7=
EXTT8=
EXTT9=
PLAYORDER=
